<?xml version="1.0" encoding="utf-8"?>
<!-- Generator: Adobe Illustrator 16.0.0, SVG Export Plug-In . SVG Version: 6.00 Build 0)  -->
<!DOCTYPE svg PUBLIC "-//W3C//DTD SVG 1.1//EN" "http://www.w3.org/Graphics/SVG/1.1/DTD/svg11.dtd">
<svg version="1.1" id="Layer_1" xmlns="http://www.w3.org/2000/svg" xmlns:xlink="http://www.w3.org/1999/xlink" x="0px" y="0px"
	 width="134px" height="34px" viewBox="0 0 134 34" enable-background="new 0 0 134 34" xml:space="preserve">
<g>
	<path fill="#33BA9E" d="M29.575,10.214c-1.093,2.701-2.069,5.108-2.929,7.221c-0.367,0.908-0.725,1.792-1.068,2.653
		c-0.344,0.858-0.654,1.626-0.931,2.302s-0.5,1.222-0.671,1.64l-0.24,0.607c-0.258,0.627-0.531,1.223-0.82,1.787
		c-0.288,0.564-0.617,1.059-0.985,1.483c-0.368,0.423-0.782,0.761-1.243,1.013c-0.46,0.251-0.992,0.377-1.594,0.377
		c-0.552,0-1.037-0.095-1.455-0.286c-0.417-0.19-0.801-0.478-1.15-0.865c-0.351-0.387-0.679-0.872-0.985-1.456
		c-0.308-0.582-0.614-1.262-0.921-2.034L8.779,10.287V27.86c0,0.368-0.071,0.718-0.213,1.05c-0.141,0.332-0.334,0.617-0.58,0.857
		c-0.245,0.239-0.534,0.429-0.865,0.571c-0.332,0.142-0.682,0.211-1.049,0.211c-0.369,0-0.719-0.07-1.051-0.211
		s-0.617-0.332-0.857-0.571c-0.239-0.24-0.43-0.525-0.57-0.857c-0.142-0.332-0.212-0.682-0.212-1.05V10.858
		c0-1.069,0.056-2.041,0.166-2.919c0.11-0.878,0.334-1.624,0.672-2.238c0.338-0.615,0.812-1.089,1.419-1.428
		c0.607-0.337,1.409-0.507,2.403-0.507c0.712,0,1.336,0.123,1.87,0.369c0.534,0.245,1.031,0.642,1.491,1.188
		c0.462,0.546,0.909,1.256,1.346,2.127c0.435,0.872,0.911,1.928,1.427,3.168L19.094,22.5h0.148l4.973-11.881
		c0.442-1.055,0.875-2.008,1.299-2.856c0.424-0.847,0.875-1.564,1.354-2.155c0.479-0.588,1.002-1.043,1.566-1.363
		c0.564-0.319,1.209-0.479,1.934-0.479c0.786,0,1.471,0.117,2.055,0.351c0.583,0.232,1.062,0.607,1.437,1.124
		c0.375,0.516,0.654,1.182,0.839,1.998c0.184,0.817,0.276,1.803,0.276,2.957V27.86c0,0.368-0.072,0.718-0.213,1.05
		c-0.142,0.332-0.335,0.617-0.579,0.857c-0.247,0.239-0.535,0.429-0.867,0.571c-0.331,0.142-0.682,0.211-1.049,0.211
		c-0.369,0-0.719-0.07-1.051-0.211s-0.616-0.332-0.856-0.571c-0.239-0.24-0.43-0.525-0.571-0.857
		c-0.141-0.332-0.212-0.682-0.212-1.05V10.214z"/>
	<path fill="#33BA9E" d="M39.762,17.176c0-2.027,0.273-3.898,0.82-5.618c0.545-1.719,1.366-3.198,2.459-4.439
		c1.093-1.241,2.462-2.21,4.107-2.91s3.573-1.05,5.783-1.05c2.149,0,4.047,0.337,5.692,1.013c1.646,0.675,3.022,1.63,4.126,2.864
		c1.106,1.234,1.94,2.711,2.507,4.43c0.563,1.719,0.847,3.623,0.847,5.71c0,2.051-0.276,3.936-0.829,5.655
		c-0.553,1.72-1.382,3.196-2.486,4.43c-1.106,1.234-2.481,2.196-4.126,2.884c-1.646,0.688-3.556,1.031-5.73,1.031
		c-2.123,0-4.005-0.332-5.645-0.995s-3.019-1.605-4.136-2.828c-1.118-1.221-1.962-2.692-2.533-4.412
		C40.048,21.223,39.762,19.301,39.762,17.176z M46.928,17.176c0,3.046,0.484,5.346,1.455,6.899c0.97,1.553,2.487,2.33,4.549,2.33
		c2.027,0,3.538-0.774,4.532-2.321s1.492-3.851,1.492-6.908c0-1.474-0.119-2.785-0.359-3.933c-0.239-1.148-0.605-2.115-1.097-2.901
		c-0.49-0.786-1.113-1.384-1.869-1.795c-0.755-0.412-1.654-0.618-2.699-0.618c-1.03,0-1.924,0.207-2.68,0.618
		c-0.755,0.411-1.379,1.01-1.869,1.795c-0.491,0.786-0.856,1.753-1.096,2.901C47.047,14.392,46.928,15.703,46.928,17.176z"/>
	<path fill="#33BA9E" d="M69.087,8.647c-0.355,0-0.693-0.064-1.013-0.193c-0.319-0.128-0.599-0.304-0.839-0.525
		c-0.239-0.22-0.429-0.478-0.57-0.773c-0.142-0.294-0.212-0.607-0.212-0.939c0-0.332,0.07-0.647,0.212-0.948s0.331-0.562,0.57-0.784
		c0.24-0.221,0.52-0.396,0.839-0.524c0.319-0.129,0.657-0.194,1.013-0.194h16.817c0.356,0,0.694,0.064,1.014,0.194
		c0.32,0.129,0.598,0.303,0.839,0.524c0.239,0.221,0.429,0.483,0.57,0.784s0.212,0.616,0.212,0.948c0,0.332-0.07,0.645-0.212,0.939
		c-0.142,0.295-0.331,0.553-0.57,0.773c-0.241,0.221-0.519,0.397-0.839,0.525c-0.319,0.129-0.657,0.193-1.014,0.193h-4.936v18.292
		c0,0.504-0.09,0.974-0.268,1.409c-0.179,0.437-0.424,0.817-0.736,1.143c-0.313,0.325-0.676,0.58-1.087,0.764
		c-0.411,0.184-0.856,0.277-1.336,0.277c-0.479,0-0.924-0.093-1.335-0.277c-0.412-0.185-0.771-0.439-1.078-0.764
		s-0.55-0.706-0.728-1.143c-0.178-0.435-0.267-0.905-0.267-1.409V8.647H69.087z"/>
	<path fill="#33BA9E" d="M98.689,26.939c0,0.504-0.09,0.974-0.268,1.409c-0.179,0.437-0.424,0.817-0.736,1.143
		c-0.314,0.325-0.677,0.58-1.088,0.764c-0.412,0.184-0.855,0.277-1.336,0.277c-0.478,0-0.923-0.093-1.335-0.277
		c-0.411-0.185-0.771-0.439-1.078-0.764c-0.306-0.325-0.55-0.706-0.727-1.143c-0.179-0.435-0.267-0.905-0.267-1.409V7.358
		c0-0.502,0.088-0.973,0.267-1.408c0.177-0.436,0.421-0.816,0.727-1.143c0.308-0.325,0.667-0.58,1.078-0.765
		c0.412-0.185,0.857-0.276,1.335-0.276c0.48,0,0.924,0.092,1.336,0.276c0.411,0.185,0.773,0.439,1.088,0.765
		c0.312,0.326,0.558,0.707,0.736,1.143c0.178,0.436,0.268,0.906,0.268,1.408V26.939z"/>
	<path fill="#33BA9E" d="M114.881,25.539l5.581-18.751c0.146-0.516,0.35-0.961,0.608-1.335c0.257-0.375,0.543-0.685,0.855-0.931
		c0.314-0.246,0.646-0.429,0.995-0.553c0.35-0.122,0.696-0.184,1.041-0.184c0.356,0,0.696,0.064,1.021,0.193
		c0.325,0.128,0.614,0.315,0.867,0.561c0.25,0.247,0.45,0.553,0.599,0.921c0.146,0.368,0.221,0.792,0.221,1.271
		c0,0.553-0.1,1.142-0.296,1.769l-4.788,14.792c-0.406,1.24-0.795,2.312-1.171,3.214c-0.374,0.903-0.807,1.655-1.298,2.256
		c-0.491,0.602-1.081,1.047-1.768,1.335c-0.688,0.289-1.542,0.434-2.562,0.434c-0.934,0-1.719-0.104-2.358-0.314
		C111.792,30.009,114.881,25.539,114.881,25.539z"/>
	<linearGradient id="SVGID_1_" gradientUnits="userSpaceOnUse" x1="113.834" y1="29.9565" x2="105.806" y2="7.0464">
		<stop  offset="0" style="stop-color:#BEDC91"/>
		<stop  offset="1" style="stop-color:#5CC09A"/>
	</linearGradient>
	<path fill="url(#SVGID_1_)" d="M114.788,25.539h0.093c0,0-1.812,4.889-2.451,4.679c-0.638-0.208-1.2-0.571-1.685-1.086
		c-0.485-0.516-0.924-1.204-1.317-2.063c-0.393-0.859-0.804-1.94-1.234-3.242l-5.14-15.565c-0.086-0.246-0.145-0.479-0.174-0.7
		c-0.03-0.221-0.047-0.436-0.047-0.646c0-0.478,0.083-0.908,0.249-1.289s0.39-0.709,0.673-0.986
		c0.281-0.276,0.602-0.488,0.958-0.635c0.356-0.148,0.73-0.221,1.124-0.221c0.33,0,0.665,0.058,1.003,0.175
		c0.337,0.116,0.657,0.298,0.958,0.543c0.301,0.247,0.574,0.562,0.819,0.949c0.246,0.387,0.447,0.85,0.608,1.39L114.788,25.539z"/>
	<path fill="#33BA9E" d="M126.394,27.621c0-0.405,0.076-0.789,0.229-1.152c0.154-0.361,0.369-0.681,0.646-0.958
		c0.276-0.276,0.604-0.497,0.985-0.663c0.381-0.165,0.797-0.248,1.252-0.248c0.405,0,0.796,0.073,1.17,0.221
		c0.374,0.147,0.706,0.354,0.995,0.617c0.288,0.264,0.519,0.581,0.689,0.948c0.173,0.37,0.259,0.781,0.259,1.235
		c0,0.405-0.08,0.792-0.239,1.161c-0.159,0.368-0.377,0.69-0.653,0.967c-0.277,0.275-0.605,0.494-0.986,0.654
		c-0.38,0.159-0.792,0.24-1.234,0.24c-0.431,0-0.832-0.077-1.206-0.231c-0.374-0.153-0.703-0.365-0.985-0.636
		c-0.283-0.27-0.506-0.589-0.672-0.957C126.477,28.45,126.394,28.051,126.394,27.621z"/>
</g>
</svg>
