<?xml version="1.0" encoding="utf-8"?>
<!-- Generator: Adobe Illustrator 16.0.0, SVG Export Plug-In . SVG Version: 6.00 Build 0)  -->
<!DOCTYPE svg PUBLIC "-//W3C//DTD SVG 1.1//EN" "http://www.w3.org/Graphics/SVG/1.1/DTD/svg11.dtd">
<svg version="1.1" id="Layer_1" xmlns="http://www.w3.org/2000/svg" xmlns:xlink="http://www.w3.org/1999/xlink" x="0px" y="0px"
	 width="117px" height="15.242px" viewBox="0 0 117 15.242" enable-background="new 0 0 117 15.242" xml:space="preserve">
<g>
	<path fill="#F7EC16" d="M12.385,3.185H7.758v12.057H4.934V3.185H0.287V0.708h12.098V3.185z"/>
	<path fill="#F7EC16" d="M14.206,15.242V0.729h2.825v14.514H14.206z"/>
	<path fill="#F7EC16" d="M30.931,3.185h-4.626v12.057h-2.825V3.185h-4.647V0.708h12.098V3.185z"/>
	<path fill="#F7EC16" d="M29.928,15.242l5.731-14.534h2.293l5.711,14.534h-2.988l-1.331-3.623h-5.097l-1.331,3.623H29.928z
		 M36.806,3.758l-2.088,5.875h4.114L36.806,3.758z"/>
	<path fill="#F7EC16" d="M48.043,5.928v9.314h-2.825V0.708h2.19l7.574,9.54V0.729h2.825v14.514h-2.292L48.043,5.928z"/>
	<path fill="#F7EC16" d="M76.108,1.978h-5.179v13.265h-1.434V1.978h-5.178v-1.27h11.79V1.978z"/>
	<path fill="#F7EC16" d="M88.103,13.973v1.27h-9.764V0.708h9.58v1.27h-8.168v5.24h7.123v1.208h-7.123v5.547H88.103z"/>
	<path fill="#F7EC16" d="M89.946,7.873c0-0.874,0.153-1.743,0.46-2.61c0.308-0.866,0.754-1.641,1.342-2.323
		c0.586-0.682,1.31-1.238,2.17-1.668c0.859-0.43,1.834-0.645,2.927-0.645c1.296,0,2.401,0.293,3.315,0.88
		c0.914,0.587,1.598,1.351,2.048,2.293l-1.146,0.696c-0.232-0.478-0.512-0.88-0.839-1.208c-0.328-0.328-0.684-0.594-1.064-0.798
		c-0.383-0.205-0.778-0.351-1.188-0.44c-0.41-0.088-0.812-0.133-1.208-0.133c-0.874,0-1.645,0.177-2.313,0.532
		c-0.668,0.355-1.231,0.819-1.688,1.392c-0.458,0.573-0.802,1.218-1.034,1.934c-0.232,0.717-0.348,1.443-0.348,2.18
		c0,0.806,0.141,1.576,0.42,2.313c0.279,0.737,0.662,1.388,1.146,1.955s1.057,1.018,1.719,1.352s1.383,0.501,2.16,0.501
		c0.409,0,0.829-0.051,1.259-0.153c0.431-0.103,0.847-0.266,1.249-0.491s0.773-0.505,1.115-0.839
		c0.342-0.335,0.627-0.74,0.859-1.219l1.188,0.614c-0.232,0.546-0.56,1.027-0.982,1.443c-0.423,0.417-0.895,0.768-1.412,1.054
		c-0.52,0.287-1.068,0.506-1.648,0.655c-0.58,0.15-1.149,0.226-1.709,0.226c-0.996,0-1.91-0.219-2.743-0.655S92.45,13.703,91.849,13
		c-0.601-0.702-1.068-1.5-1.402-2.395C90.113,9.712,89.946,8.801,89.946,7.873z"/>
	<path fill="#F7EC16" d="M116.455,0.708v14.534h-1.433V8.446h-8.618v6.796h-1.412V0.708h1.412v6.469h8.618V0.708H116.455z"/>
</g>
</svg>
