<?xml version="1.0" encoding="utf-8"?>
<!-- Generator: Adobe Illustrator 16.0.0, SVG Export Plug-In . SVG Version: 6.00 Build 0)  -->
<!DOCTYPE svg PUBLIC "-//W3C//DTD SVG 1.1//EN" "http://www.w3.org/Graphics/SVG/1.1/DTD/svg11.dtd">
<svg version="1.1" id="Layer_1" xmlns="http://www.w3.org/2000/svg" xmlns:xlink="http://www.w3.org/1999/xlink" x="0px" y="0px"
	 width="35.167px" height="34px" viewBox="98.833 0 35.167 34" enable-background="new 98.833 0 35.167 34" xml:space="preserve">
<g>
	<path fill="#33BA9E" d="M114.881,25.539l5.581-18.751c0.146-0.516,0.351-0.961,0.608-1.335c0.257-0.375,0.543-0.685,0.854-0.931
		c0.314-0.246,0.646-0.429,0.995-0.553c0.35-0.122,0.696-0.184,1.041-0.184c0.355,0,0.696,0.064,1.021,0.193
		c0.324,0.128,0.613,0.315,0.867,0.561c0.25,0.247,0.449,0.553,0.599,0.921c0.146,0.368,0.221,0.792,0.221,1.271
		c0,0.553-0.101,1.142-0.296,1.769l-4.788,14.792c-0.405,1.24-0.795,2.312-1.171,3.214c-0.374,0.903-0.807,1.655-1.298,2.256
		c-0.491,0.603-1.081,1.047-1.769,1.336c-0.688,0.288-1.541,0.434-2.562,0.434c-0.935,0-1.72-0.104-2.358-0.314
		C111.792,30.009,114.881,25.539,114.881,25.539z"/>
	
		<linearGradient id="SVGID_1_" gradientUnits="userSpaceOnUse" x1="-450.168" y1="239.0449" x2="-458.1958" y2="261.9546" gradientTransform="matrix(1 0 0 -1 564 269)">
		<stop  offset="0" style="stop-color:#BEDC91"/>
		<stop  offset="1" style="stop-color:#5CC09A"/>
	</linearGradient>
	<path fill="url(#SVGID_1_)" d="M114.788,25.539h0.093c0,0-1.812,4.889-2.451,4.679c-0.638-0.208-1.199-0.571-1.685-1.086
		c-0.485-0.516-0.925-1.204-1.317-2.063c-0.393-0.858-0.804-1.939-1.234-3.241l-5.139-15.565c-0.087-0.246-0.146-0.479-0.175-0.7
		c-0.03-0.221-0.047-0.436-0.047-0.646c0-0.478,0.083-0.908,0.249-1.289s0.391-0.709,0.673-0.986
		c0.281-0.276,0.603-0.488,0.958-0.635c0.355-0.148,0.73-0.221,1.124-0.221c0.33,0,0.665,0.058,1.003,0.175
		c0.337,0.116,0.657,0.298,0.958,0.543c0.302,0.247,0.574,0.562,0.819,0.949c0.246,0.387,0.447,0.85,0.607,1.39L114.788,25.539z"/>
	<path fill="#33BA9E" d="M126.395,27.621c0-0.405,0.075-0.789,0.229-1.152c0.154-0.361,0.369-0.681,0.646-0.958
		c0.275-0.276,0.604-0.497,0.984-0.663c0.381-0.164,0.797-0.248,1.252-0.248c0.405,0,0.796,0.073,1.17,0.221
		s0.706,0.354,0.995,0.617c0.288,0.265,0.519,0.582,0.688,0.948c0.174,0.37,0.26,0.781,0.26,1.235c0,0.404-0.08,0.792-0.239,1.161
		c-0.159,0.368-0.377,0.69-0.653,0.967c-0.276,0.274-0.604,0.494-0.985,0.653c-0.38,0.16-0.792,0.24-1.234,0.24
		c-0.431,0-0.832-0.076-1.206-0.23c-0.374-0.153-0.703-0.365-0.984-0.637c-0.283-0.27-0.506-0.588-0.672-0.957
		C126.477,28.45,126.395,28.051,126.395,27.621z"/>
</g>
</svg>
