<?xml version="1.0" encoding="utf-8"?>
<!-- Generator: Adobe Illustrator 16.0.0, SVG Export Plug-In . SVG Version: 6.00 Build 0)  -->
<!DOCTYPE svg PUBLIC "-//W3C//DTD SVG 1.1//EN" "http://www.w3.org/Graphics/SVG/1.1/DTD/svg11.dtd">
<svg version="1.1" id="Layer_1" xmlns="http://www.w3.org/2000/svg" xmlns:xlink="http://www.w3.org/1999/xlink" x="0px" y="0px"
	 width="145.672px" height="41.75px" viewBox="0 0 145.672 41.75" enable-background="new 0 0 145.672 41.75" xml:space="preserve">
<g>
	<g>
		<path fill="#33BA9E" d="M36.1,35.257c-0.504,0-0.989-0.098-1.443-0.292c-0.446-0.19-0.84-0.454-1.17-0.782
			c-0.33-0.331-0.594-0.725-0.785-1.173c-0.194-0.458-0.292-0.943-0.292-1.442V19.052c-0.351,0.862-0.685,1.685-1.002,2.467
			c-0.366,0.905-0.724,1.788-1.066,2.647c-0.345,0.862-0.656,1.631-0.934,2.309l-0.671,1.64L28.5,28.711
			c-0.271,0.662-0.56,1.289-0.86,1.875c-0.321,0.631-0.699,1.198-1.12,1.683c-0.446,0.513-0.957,0.929-1.519,1.235
			c-0.607,0.332-1.305,0.5-2.073,0.5c-0.695,0-1.325-0.127-1.871-0.377c-0.54-0.246-1.037-0.618-1.477-1.104
			c-0.404-0.445-0.784-1.004-1.129-1.661c-0.317-0.601-0.643-1.319-0.965-2.13l-3.873-9.591v12.427c0,0.501-0.099,0.986-0.293,1.442
			c-0.191,0.451-0.462,0.849-0.802,1.181c-0.331,0.323-0.725,0.583-1.17,0.774c-0.455,0.194-0.939,0.292-1.442,0.292
			c-0.504,0-0.989-0.098-1.443-0.292c-0.447-0.191-0.841-0.454-1.171-0.782c-0.331-0.333-0.595-0.727-0.785-1.175
			c-0.192-0.453-0.291-0.938-0.291-1.44V14.565c0-1.102,0.059-2.126,0.174-3.044c0.126-1.001,0.391-1.874,0.788-2.596
			C7.604,8.15,8.213,7.538,8.986,7.107c0.757-0.42,1.729-0.633,2.89-0.633c0.854,0,1.624,0.155,2.288,0.46
			c0.665,0.305,1.283,0.794,1.838,1.453c0.514,0.607,0.996,1.368,1.476,2.324c0.447,0.898,0.937,1.984,1.455,3.232l4.074,9.841
			l4.119-9.844c0.453-1.079,0.899-2.06,1.327-2.917c0.453-0.906,0.948-1.692,1.472-2.338C30.483,8,31.105,7.461,31.775,7.082
			c0.715-0.404,1.531-0.608,2.426-0.608c0.909,0,1.726,0.142,2.426,0.422c0.757,0.302,1.388,0.794,1.874,1.464
			c0.453,0.623,0.792,1.419,1.006,2.365c0.199,0.89,0.301,1.958,0.301,3.178v17.665c0,0.498-0.099,0.982-0.292,1.44
			c-0.193,0.453-0.462,0.849-0.8,1.18c-0.339,0.329-0.732,0.588-1.175,0.777C37.089,35.159,36.604,35.257,36.1,35.257z"/>
		<path fill="#FFFFFF" d="M34.201,7.474c0.786,0,1.471,0.117,2.055,0.351c0.583,0.232,1.062,0.607,1.437,1.124
			c0.375,0.516,0.654,1.182,0.839,1.998c0.184,0.817,0.276,1.803,0.276,2.957v17.665c0,0.368-0.072,0.718-0.213,1.05
			c-0.142,0.332-0.335,0.617-0.579,0.857c-0.247,0.239-0.535,0.429-0.867,0.571c-0.331,0.142-0.682,0.211-1.049,0.211
			c-0.369,0-0.719-0.07-1.051-0.211s-0.616-0.332-0.856-0.571c-0.239-0.24-0.43-0.525-0.571-0.857
			c-0.141-0.332-0.212-0.682-0.212-1.05V13.921c-1.093,2.701-2.069,5.108-2.929,7.221c-0.367,0.908-0.725,1.792-1.068,2.653
			c-0.344,0.858-0.654,1.626-0.931,2.302s-0.5,1.222-0.671,1.64l-0.24,0.607c-0.258,0.627-0.531,1.223-0.82,1.787
			c-0.288,0.564-0.617,1.059-0.985,1.483c-0.368,0.423-0.782,0.761-1.243,1.013c-0.46,0.251-0.992,0.377-1.594,0.377
			c-0.552,0-1.037-0.095-1.455-0.286c-0.417-0.19-0.801-0.478-1.15-0.865c-0.351-0.387-0.679-0.872-0.985-1.456
			c-0.308-0.582-0.614-1.262-0.921-2.034l-5.803-14.369v17.573c0,0.368-0.071,0.718-0.213,1.05c-0.141,0.332-0.334,0.617-0.58,0.857
			c-0.245,0.239-0.534,0.429-0.865,0.571c-0.332,0.142-0.682,0.211-1.049,0.211c-0.369,0-0.719-0.07-1.051-0.211
			s-0.617-0.332-0.857-0.571c-0.239-0.24-0.43-0.525-0.57-0.857c-0.142-0.332-0.212-0.682-0.212-1.05V14.565
			c0-1.069,0.056-2.041,0.166-2.919c0.11-0.878,0.334-1.624,0.672-2.238C8.392,8.793,8.865,8.319,9.473,7.98
			c0.607-0.337,1.409-0.507,2.403-0.507c0.712,0,1.336,0.123,1.87,0.369c0.534,0.245,1.031,0.642,1.491,1.188
			c0.462,0.546,0.909,1.256,1.346,2.127c0.435,0.872,0.911,1.928,1.427,3.168l4.918,11.881h0.148l4.973-11.881
			c0.442-1.055,0.875-2.008,1.299-2.856c0.424-0.847,0.875-1.564,1.354-2.155c0.479-0.588,1.002-1.043,1.566-1.363
			C32.832,7.634,33.477,7.474,34.201,7.474 M34.201,5.474c-1.069,0-2.051,0.248-2.917,0.738c-0.78,0.441-1.497,1.06-2.134,1.841
			c-0.571,0.706-1.106,1.553-1.592,2.523c-0.438,0.877-0.894,1.879-1.354,2.978l-3.192,7.628l-3.154-7.62
			c-0.528-1.271-1.027-2.379-1.484-3.295c-0.517-1.031-1.042-1.856-1.608-2.526c-0.647-0.77-1.384-1.348-2.185-1.715
			c-0.795-0.365-1.705-0.551-2.704-0.551c-1.333,0-2.469,0.255-3.374,0.758C7.56,6.757,6.82,7.501,6.301,8.445
			c-0.457,0.832-0.762,1.825-0.903,2.952c-0.12,0.959-0.182,2.026-0.182,3.169v17.002c0,0.638,0.125,1.255,0.372,1.834
			c0.239,0.563,0.574,1.063,0.994,1.485c0.425,0.423,0.924,0.757,1.488,0.998c0.579,0.247,1.196,0.372,1.836,0.372
			c0.639,0,1.255-0.125,1.833-0.372c0.562-0.24,1.058-0.569,1.478-0.979c0.436-0.424,0.78-0.931,1.024-1.507
			c0.246-0.577,0.372-1.194,0.372-1.831v-7.28l1.948,4.824c0.331,0.833,0.671,1.584,1.007,2.22c0.382,0.726,0.811,1.355,1.272,1.864
			c0.528,0.586,1.136,1.039,1.803,1.342c0.674,0.309,1.444,0.466,2.284,0.466c0.938,0,1.796-0.209,2.552-0.621
			c0.667-0.365,1.27-0.854,1.794-1.456c0.476-0.549,0.898-1.183,1.258-1.888c0.312-0.608,0.611-1.261,0.889-1.936l0.25-0.632
			l0.663-1.618c0.277-0.68,0.59-1.452,0.936-2.315c0.047-0.117,0.094-0.233,0.141-0.351v7.38c0,0.634,0.125,1.25,0.37,1.83
			c0.244,0.57,0.578,1.07,0.997,1.489c0.425,0.423,0.924,0.757,1.487,0.998c0.579,0.247,1.196,0.372,1.836,0.372
			s1.258-0.125,1.835-0.373c0.554-0.236,1.05-0.563,1.473-0.973c0.44-0.433,0.783-0.938,1.026-1.508
			c0.249-0.587,0.374-1.203,0.374-1.835V13.903c0-1.293-0.109-2.436-0.325-3.396c-0.244-1.083-0.639-2.002-1.173-2.736
			c-0.599-0.825-1.377-1.432-2.313-1.805C36.179,5.64,35.238,5.474,34.201,5.474L34.201,5.474z"/>
	</g>
	<g>
		<path fill="#33BA9E" d="M56.766,35.883c-2.241,0-4.267-0.359-6.02-1.067c-1.771-0.716-3.285-1.752-4.499-3.08
			c-1.207-1.318-2.13-2.924-2.744-4.771c-0.602-1.815-0.907-3.86-0.907-6.081c0-2.119,0.292-4.111,0.867-5.921
			c0.583-1.839,1.479-3.454,2.661-4.797c1.187-1.347,2.689-2.413,4.467-3.169c1.762-0.75,3.839-1.13,6.175-1.13
			c2.271,0,4.314,0.366,6.072,1.088c1.78,0.729,3.291,1.78,4.491,3.123c1.19,1.328,2.104,2.938,2.712,4.783
			c0.595,1.816,0.896,3.842,0.896,6.023c0,2.145-0.295,4.15-0.877,5.961c-0.594,1.845-1.499,3.457-2.693,4.791
			c-1.202,1.341-2.711,2.397-4.485,3.139C61.121,35.51,59.063,35.883,56.766,35.883z M56.766,12.636
			c-0.855,0-1.597,0.167-2.201,0.497c-0.608,0.331-1.099,0.804-1.499,1.446c-0.427,0.683-0.751,1.549-0.966,2.576
			c-0.224,1.073-0.338,2.327-0.338,3.729c0,2.843,0.438,4.985,1.303,6.369c0.782,1.251,1.992,1.86,3.701,1.86
			c1.679,0,2.886-0.609,3.69-1.862c0.886-1.377,1.334-3.52,1.334-6.367c0-1.401-0.114-2.656-0.338-3.728
			c-0.214-1.026-0.539-1.893-0.966-2.577c-0.402-0.644-0.893-1.117-1.499-1.447C58.383,12.803,57.636,12.636,56.766,12.636z"/>
		<path fill="#FFFFFF" d="M56.766,6.866c2.149,0,4.047,0.337,5.692,1.013c1.646,0.675,3.022,1.63,4.126,2.864
			c1.106,1.234,1.94,2.711,2.507,4.43c0.563,1.719,0.847,3.623,0.847,5.71c0,2.051-0.276,3.936-0.829,5.655
			c-0.553,1.72-1.382,3.196-2.486,4.43c-1.106,1.234-2.481,2.196-4.126,2.884c-1.646,0.688-3.556,1.031-5.73,1.031
			c-2.123,0-4.005-0.332-5.645-0.995s-3.019-1.605-4.136-2.828c-1.118-1.221-1.962-2.692-2.533-4.412
			c-0.57-1.719-0.856-3.641-0.856-5.765c0-2.027,0.273-3.898,0.82-5.618c0.545-1.719,1.366-3.198,2.459-4.439
			c1.093-1.241,2.462-2.21,4.107-2.91S54.556,6.866,56.766,6.866 M56.766,30.113c2.027,0,3.538-0.774,4.532-2.321
			s1.492-3.851,1.492-6.908c0-1.474-0.119-2.785-0.359-3.933c-0.239-1.148-0.605-2.115-1.097-2.901
			c-0.49-0.786-1.113-1.384-1.869-1.795c-0.755-0.412-1.654-0.618-2.699-0.618c-1.03,0-1.924,0.207-2.68,0.618
			c-0.755,0.411-1.379,1.01-1.869,1.795c-0.491,0.786-0.856,1.753-1.096,2.901c-0.24,1.148-0.359,2.459-0.359,3.933
			c0,3.046,0.484,5.346,1.455,6.899C53.187,29.335,54.704,30.113,56.766,30.113 M56.766,4.866c-2.471,0-4.681,0.407-6.566,1.209
			c-1.916,0.815-3.539,1.969-4.825,3.429c-1.275,1.449-2.239,3.184-2.864,5.157c-0.606,1.906-0.914,4-0.914,6.222
			c0,2.327,0.322,4.479,0.958,6.395c0.659,1.983,1.653,3.71,2.956,5.133c1.314,1.438,2.951,2.559,4.862,3.332
			c1.872,0.756,4.023,1.14,6.394,1.14c2.431,0,4.618-0.399,6.502-1.186c1.913-0.8,3.542-1.942,4.844-3.394
			c1.289-1.439,2.265-3.173,2.901-5.153c0.613-1.909,0.925-4.018,0.925-6.267c0-2.287-0.318-4.418-0.946-6.333
			c-0.652-1.98-1.634-3.709-2.918-5.142c-1.3-1.454-2.935-2.592-4.856-3.38C61.339,5.257,59.168,4.866,56.766,4.866L56.766,4.866z
			 M56.766,28.113c-1.759,0-2.448-0.743-2.853-1.39c-0.764-1.223-1.151-3.187-1.151-5.839c0-1.333,0.106-2.518,0.317-3.523
			c0.189-0.913,0.471-1.669,0.834-2.251c0.308-0.494,0.677-0.853,1.13-1.099c0.456-0.249,1.035-0.375,1.723-0.375
			c0.7,0,1.286,0.126,1.742,0.374c0.453,0.247,0.822,0.605,1.129,1.098c0.365,0.584,0.646,1.341,0.836,2.251
			c0.211,1.006,0.317,2.192,0.317,3.524c0,2.616-0.406,4.63-1.175,5.827C58.992,27.68,58.113,28.113,56.766,28.113L56.766,28.113z"
			/>
	</g>
	<g>
		<path fill="#33BA9E" d="M81.376,35.239c-0.617,0-1.204-0.123-1.743-0.364c-0.532-0.238-1.002-0.571-1.397-0.991
			c-0.392-0.415-0.703-0.903-0.926-1.452c-0.227-0.552-0.341-1.154-0.341-1.786V13.355h-4.048c-0.484,0-0.952-0.09-1.389-0.267
			c-0.426-0.171-0.811-0.413-1.141-0.716c-0.33-0.305-0.598-0.667-0.794-1.077c-0.206-0.426-0.311-0.889-0.311-1.371
			c0-0.479,0.104-0.941,0.308-1.374c0.196-0.418,0.464-0.786,0.796-1.092c0.329-0.303,0.713-0.543,1.144-0.717
			c0.436-0.177,0.903-0.267,1.387-0.267h16.817c0.484,0,0.952,0.09,1.39,0.267c0.425,0.171,0.809,0.412,1.139,0.714
			c0.335,0.309,0.603,0.676,0.799,1.095c0.204,0.433,0.308,0.895,0.308,1.374c0,0.482-0.104,0.945-0.311,1.373
			c-0.196,0.408-0.464,0.771-0.795,1.075c-0.333,0.306-0.718,0.547-1.144,0.718c-0.433,0.175-0.9,0.265-1.386,0.265h-3.936v17.292
			c0,0.631-0.115,1.232-0.342,1.788c-0.227,0.553-0.543,1.042-0.941,1.457c-0.401,0.417-0.871,0.747-1.398,0.983
			C82.581,35.117,81.994,35.239,81.376,35.239z"/>
		<path fill="#FFFFFF" d="M89.738,7.474c0.356,0,0.694,0.064,1.014,0.194c0.32,0.129,0.598,0.303,0.839,0.524
			c0.239,0.221,0.429,0.483,0.57,0.784s0.212,0.616,0.212,0.948c0,0.332-0.07,0.645-0.212,0.939
			c-0.142,0.295-0.331,0.553-0.57,0.773c-0.241,0.221-0.519,0.397-0.839,0.525c-0.319,0.129-0.657,0.193-1.014,0.193h-4.936v18.292
			c0,0.504-0.09,0.974-0.268,1.409c-0.179,0.437-0.424,0.817-0.736,1.143c-0.313,0.325-0.676,0.58-1.087,0.764
			c-0.411,0.184-0.856,0.277-1.336,0.277c-0.479,0-0.924-0.093-1.335-0.277c-0.412-0.185-0.771-0.439-1.078-0.764
			s-0.55-0.706-0.728-1.143c-0.178-0.435-0.267-0.905-0.267-1.409V12.355h-5.048c-0.355,0-0.693-0.064-1.013-0.193
			c-0.319-0.128-0.599-0.304-0.839-0.525c-0.239-0.22-0.429-0.478-0.57-0.773c-0.142-0.294-0.212-0.607-0.212-0.939
			c0-0.332,0.07-0.647,0.212-0.948s0.331-0.562,0.57-0.784c0.24-0.221,0.52-0.396,0.839-0.524c0.319-0.129,0.657-0.194,1.013-0.194
			H89.738 M89.738,5.474H72.921c-0.613,0-1.207,0.115-1.764,0.34c-0.54,0.218-1.026,0.523-1.442,0.907
			c-0.43,0.397-0.773,0.868-1.025,1.403c-0.267,0.567-0.402,1.173-0.402,1.8c0,0.634,0.138,1.242,0.41,1.807
			c0.25,0.521,0.593,0.986,1.018,1.377c0.419,0.386,0.906,0.691,1.447,0.909c0.552,0.224,1.145,0.338,1.759,0.338h3.048v16.292
			c0,0.763,0.14,1.491,0.415,2.166c0.27,0.661,0.647,1.253,1.124,1.758c0.486,0.516,1.063,0.925,1.716,1.217
			c0.669,0.3,1.394,0.452,2.152,0.452c0.76,0,1.484-0.152,2.153-0.452c0.646-0.29,1.22-0.693,1.709-1.201
			c0.488-0.508,0.874-1.104,1.147-1.773c0.277-0.677,0.417-1.406,0.417-2.167V14.355h2.936c0.614,0,1.208-0.114,1.765-0.34
			c0.531-0.213,1.019-0.519,1.439-0.905c0.428-0.394,0.771-0.858,1.022-1.383c0.271-0.561,0.408-1.169,0.408-1.803
			c0-0.627-0.136-1.233-0.402-1.8c-0.252-0.535-0.596-1.006-1.022-1.4c-0.425-0.389-0.91-0.694-1.449-0.911
			C90.946,5.588,90.353,5.474,89.738,5.474L89.738,5.474z"/>
	</g>
	<g>
		<path fill="#33BA9E" d="M99.096,35.239c-0.616,0-1.202-0.123-1.743-0.364c-0.531-0.239-1-0.571-1.396-0.99
			c-0.395-0.42-0.706-0.908-0.927-1.454c-0.225-0.547-0.34-1.149-0.34-1.785V11.065c0-0.634,0.115-1.236,0.342-1.788
			c0.219-0.54,0.529-1.028,0.922-1.447c0.399-0.423,0.869-0.756,1.398-0.993c0.539-0.242,1.126-0.364,1.744-0.364
			c0.619,0,1.206,0.123,1.745,0.364c0.525,0.236,0.995,0.566,1.397,0.982c0.401,0.419,0.718,0.908,0.943,1.458
			c0.227,0.557,0.342,1.158,0.342,1.788v19.581c0,0.631-0.115,1.232-0.342,1.788c-0.227,0.553-0.543,1.042-0.941,1.457
			c-0.403,0.417-0.873,0.748-1.399,0.983C100.299,35.117,99.712,35.239,99.096,35.239z"/>
		<path fill="#FFFFFF" d="M99.096,7.474c0.48,0,0.924,0.092,1.336,0.276c0.411,0.185,0.773,0.439,1.088,0.765
			c0.312,0.326,0.558,0.707,0.736,1.143c0.178,0.436,0.268,0.906,0.268,1.408v19.581c0,0.504-0.09,0.974-0.268,1.409
			c-0.179,0.437-0.424,0.817-0.736,1.143c-0.314,0.325-0.677,0.58-1.088,0.764c-0.412,0.184-0.855,0.277-1.336,0.277
			c-0.478,0-0.923-0.093-1.335-0.277c-0.411-0.185-0.771-0.439-1.078-0.764c-0.306-0.325-0.55-0.706-0.727-1.143
			c-0.179-0.435-0.267-0.905-0.267-1.409V11.065c0-0.502,0.088-0.973,0.267-1.408c0.177-0.436,0.421-0.816,0.727-1.143
			c0.308-0.325,0.667-0.58,1.078-0.765C98.173,7.565,98.618,7.474,99.096,7.474 M99.096,5.474c-0.76,0-1.484,0.152-2.152,0.451
			c-0.65,0.292-1.227,0.701-1.714,1.215c-0.483,0.516-0.86,1.107-1.127,1.766c-0.273,0.666-0.413,1.395-0.413,2.16v19.581
			c0,0.766,0.141,1.496,0.417,2.169c0.264,0.652,0.642,1.245,1.119,1.752c0.49,0.519,1.066,0.928,1.716,1.219
			c0.673,0.3,1.396,0.452,2.154,0.452s1.482-0.152,2.151-0.451c0.646-0.29,1.22-0.693,1.71-1.2c0.49-0.51,0.876-1.105,1.149-1.775
			c0.277-0.677,0.417-1.406,0.417-2.167V11.065c0-0.76-0.14-1.488-0.416-2.164c-0.274-0.67-0.658-1.265-1.144-1.771
			c-0.497-0.514-1.071-0.917-1.713-1.206C100.581,5.625,99.856,5.474,99.096,5.474L99.096,5.474z"/>
	</g>
	<g>
		<path fill="#33BA9E" d="M118.622,35.239c-1.049,0-1.923-0.119-2.67-0.364c-0.337-0.11-0.597-0.369-0.711-0.708
			c-0.139-0.412-0.37-1.097,2.561-5.358l5.536-18.6c0.172-0.607,0.424-1.156,0.744-1.619c0.31-0.452,0.667-0.839,1.06-1.148
			c0.4-0.312,0.83-0.55,1.28-0.709c0.459-0.16,0.92-0.241,1.374-0.241c0.482,0,0.95,0.089,1.392,0.264
			c0.444,0.176,0.847,0.436,1.193,0.773c0.354,0.349,0.632,0.773,0.83,1.265c0.195,0.494,0.293,1.045,0.293,1.645
			c0,0.648-0.115,1.343-0.342,2.067l-4.791,14.801c-0.425,1.298-0.816,2.373-1.199,3.291c-0.408,0.987-0.896,1.83-1.446,2.504
			c-0.593,0.727-1.317,1.273-2.154,1.625C120.761,35.067,119.769,35.239,118.622,35.239z"/>
		<path fill="#FFFFFF" d="M127.796,7.493c0.356,0,0.696,0.064,1.021,0.193c0.325,0.128,0.614,0.315,0.867,0.561
			c0.25,0.247,0.45,0.553,0.599,0.921c0.146,0.368,0.221,0.792,0.221,1.271c0,0.553-0.1,1.142-0.296,1.769L125.42,27
			c-0.406,1.24-0.795,2.312-1.171,3.214c-0.374,0.903-0.807,1.655-1.298,2.256c-0.491,0.602-1.081,1.047-1.768,1.335
			c-0.688,0.289-1.542,0.434-2.562,0.434c-0.934,0-1.719-0.104-2.358-0.314c-0.638-0.208,2.451-4.679,2.451-4.679l5.581-18.751
			c0.146-0.516,0.35-0.961,0.608-1.335c0.257-0.375,0.543-0.685,0.855-0.931c0.314-0.246,0.646-0.429,0.995-0.553
			C127.104,7.554,127.451,7.493,127.796,7.493 M127.796,5.493c-0.567,0-1.139,0.1-1.7,0.295c-0.56,0.198-1.084,0.488-1.567,0.865
			c-0.477,0.375-0.903,0.836-1.273,1.376c-0.378,0.547-0.677,1.195-0.883,1.919l-5.484,18.425c-3.118,4.559-2.84,5.384-2.594,6.113
			c0.216,0.642,0.708,1.13,1.349,1.34c0.848,0.278,1.823,0.413,2.979,0.413c1.28,0,2.402-0.198,3.335-0.589
			c0.991-0.417,1.847-1.061,2.544-1.915c0.612-0.75,1.149-1.677,1.596-2.755c0.391-0.938,0.792-2.038,1.224-3.357l4.791-14.798
			c0.263-0.839,0.393-1.635,0.393-2.384c0-0.726-0.121-1.4-0.36-2.006c-0.255-0.632-0.607-1.169-1.055-1.61
			c-0.453-0.44-0.967-0.772-1.537-0.998C128.998,5.605,128.405,5.493,127.796,5.493L127.796,5.493z"/>
	</g>
	<g>
		<linearGradient id="SVGID_1_" gradientUnits="userSpaceOnUse" x1="118.0098" y1="34.6392" x2="109.3884" y2="10.0357">
			<stop  offset="0" style="stop-color:#BEDC91"/>
			<stop  offset="1" style="stop-color:#5CC09A"/>
		</linearGradient>
		<path fill="url(#SVGID_1_)" d="M116.146,34.932l-0.193-0.056c-0.797-0.26-1.504-0.715-2.102-1.352
			c-0.556-0.59-1.06-1.375-1.498-2.331c-0.404-0.886-0.833-2.011-1.274-3.345l-5.14-15.566c-0.104-0.295-0.179-0.598-0.216-0.882
			c-0.036-0.263-0.056-0.523-0.056-0.777c0-0.614,0.111-1.182,0.332-1.688c0.218-0.5,0.518-0.938,0.892-1.302
			c0.369-0.362,0.799-0.647,1.274-0.843c0.474-0.197,0.98-0.297,1.506-0.297c0.441,0,0.889,0.077,1.329,0.229
			c0.445,0.154,0.87,0.394,1.263,0.712c0.388,0.317,0.733,0.717,1.033,1.19c0.295,0.462,0.531,0.999,0.722,1.639l5.351,17.982h0.69
			l-0.406,1.348c-1.978,5.338-2.77,5.338-3.347,5.338H116.146z"/>
		<path fill="#FFFFFF" d="M109.671,7.493c0.33,0,0.665,0.058,1.003,0.175c0.337,0.116,0.657,0.298,0.958,0.543
			c0.301,0.247,0.574,0.562,0.819,0.949c0.246,0.387,0.447,0.85,0.608,1.39l5.562,18.696h0.093c0,0-1.736,4.686-2.409,4.686
			c-0.015,0-0.028-0.002-0.042-0.007c-0.638-0.208-1.2-0.571-1.685-1.086c-0.485-0.516-0.924-1.204-1.317-2.063
			c-0.393-0.859-0.804-1.94-1.234-3.242l-5.14-15.565c-0.086-0.246-0.145-0.479-0.174-0.7c-0.03-0.221-0.047-0.436-0.047-0.646
			c0-0.478,0.083-0.908,0.249-1.289s0.39-0.709,0.673-0.986c0.281-0.276,0.602-0.488,0.958-0.635
			C108.903,7.565,109.277,7.493,109.671,7.493 M109.671,5.493c-0.657,0-1.294,0.126-1.891,0.374c-0.592,0.245-1.129,0.6-1.592,1.055
			c-0.463,0.452-0.837,0.996-1.105,1.614c-0.276,0.633-0.416,1.335-0.416,2.088c0,0.295,0.021,0.595,0.065,0.917
			c0.045,0.344,0.136,0.713,0.268,1.089l5.128,15.532c0.46,1.389,0.89,2.516,1.314,3.446c0.491,1.072,1.04,1.923,1.681,2.603
			c0.713,0.759,1.561,1.304,2.52,1.617l0.303,0.099l0.36,0.007c1.209,0,2.224-0.43,4.284-5.991l0.999-2.695h-1.476l-5.137-17.267
			c-0.218-0.731-0.492-1.35-0.838-1.894c-0.354-0.56-0.771-1.04-1.239-1.422c-0.489-0.398-1.017-0.695-1.573-0.887
			C110.78,5.588,110.224,5.493,109.671,5.493L109.671,5.493z"/>
	</g>
	<g>
		<path fill="#33BA9E" d="M133.34,35.35c-0.559,0-1.093-0.103-1.586-0.306c-0.488-0.199-0.925-0.481-1.298-0.838
			c-0.371-0.354-0.672-0.782-0.891-1.268c-0.225-0.498-0.338-1.039-0.338-1.609c0-0.539,0.104-1.057,0.309-1.541
			c0.206-0.483,0.495-0.911,0.859-1.275c0.365-0.364,0.8-0.658,1.293-0.873c0.508-0.22,1.062-0.332,1.651-0.332
			c0.531,0,1.048,0.098,1.537,0.291c0.483,0.19,0.922,0.462,1.302,0.809c0.387,0.354,0.696,0.779,0.922,1.265
			c0.233,0.499,0.353,1.057,0.353,1.657c0,0.539-0.108,1.063-0.321,1.557c-0.209,0.484-0.5,0.914-0.864,1.278
			c-0.372,0.37-0.811,0.661-1.307,0.869C134.458,35.243,133.913,35.35,133.34,35.35z"/>
		<path fill="#FFFFFF" d="M133.34,28.308c0.405,0,0.796,0.073,1.17,0.221c0.374,0.147,0.706,0.354,0.995,0.617
			c0.288,0.264,0.519,0.581,0.689,0.948c0.173,0.37,0.259,0.781,0.259,1.235c0,0.405-0.08,0.792-0.239,1.161
			c-0.159,0.368-0.377,0.69-0.653,0.967c-0.277,0.275-0.605,0.494-0.986,0.654c-0.38,0.159-0.792,0.24-1.234,0.24
			c-0.431,0-0.832-0.077-1.206-0.231c-0.374-0.153-0.703-0.365-0.985-0.636c-0.283-0.27-0.506-0.589-0.672-0.957
			c-0.166-0.369-0.249-0.768-0.249-1.198c0-0.405,0.076-0.789,0.229-1.152c0.154-0.361,0.369-0.681,0.646-0.958
			c0.276-0.276,0.604-0.497,0.985-0.663C132.469,28.391,132.885,28.308,133.34,28.308 M133.34,26.308
			c-0.727,0-1.415,0.139-2.047,0.413c-0.612,0.267-1.15,0.63-1.604,1.083c-0.456,0.456-0.816,0.989-1.071,1.587
			c-0.261,0.616-0.391,1.265-0.391,1.938c0,0.713,0.144,1.392,0.426,2.019c0.272,0.605,0.647,1.138,1.115,1.583
			c0.46,0.441,1.002,0.792,1.608,1.04c0.611,0.251,1.273,0.379,1.963,0.379c0.706,0,1.382-0.133,2.008-0.395
			c0.615-0.258,1.16-0.621,1.622-1.079c0.459-0.459,0.82-0.993,1.079-1.592c0.269-0.622,0.404-1.279,0.404-1.956
			c0-0.747-0.15-1.448-0.447-2.082c-0.279-0.602-0.667-1.132-1.149-1.575c-0.474-0.432-1.016-0.769-1.615-1.004
			C134.638,26.429,133.997,26.308,133.34,26.308L133.34,26.308z"/>
	</g>
</g>
</svg>
