<?xml version="1.0" encoding="utf-8"?>
<!-- Generator: Adobe Illustrator 16.0.0, SVG Export Plug-In . SVG Version: 6.00 Build 0)  -->
<!DOCTYPE svg PUBLIC "-//W3C//DTD SVG 1.1//EN" "http://www.w3.org/Graphics/SVG/1.1/DTD/svg11.dtd">
<svg version="1.1" id="Layer_1" xmlns="http://www.w3.org/2000/svg" xmlns:xlink="http://www.w3.org/1999/xlink" x="0px" y="0px"
	 width="30.5px" height="26.333px" viewBox="179.918 9.771 30.5 26.333" enable-background="new 179.918 9.771 30.5 26.333"
	 xml:space="preserve">
<g>
	<path fill="#FFFFFF" d="M209.688,32.803c0,3.276-4.965,3.276-4.965,0C204.723,29.527,209.688,29.527,209.688,32.803z"/>
	<path fill="#FFFFFF" d="M196.793,35.079h-4.725l2.346-5.448l7.311-18.795h5.104L196.793,35.079z"/>
</g>
<g>
	<g>
		<path fill="#FFFFFF" d="M0.734-125.588c-1.093,2.701-2.069,5.108-2.929,7.221c-0.367,0.908-0.725,1.792-1.068,2.653
			c-0.344,0.857-0.654,1.626-0.931,2.303c-0.277,0.676-0.5,1.221-0.671,1.639l-0.24,0.607c-0.258,0.627-0.531,1.223-0.82,1.787
			c-0.288,0.564-0.617,1.059-0.985,1.483c-0.368,0.423-0.782,0.761-1.243,1.013c-0.46,0.251-0.992,0.377-1.594,0.377
			c-0.552,0-1.037-0.095-1.455-0.286c-0.417-0.19-0.801-0.478-1.15-0.864c-0.351-0.388-0.679-0.873-0.985-1.457
			c-0.308-0.582-0.614-1.262-0.921-2.033l-5.803-14.369v17.572c0,0.369-0.071,0.719-0.213,1.051
			c-0.141,0.332-0.334,0.617-0.58,0.857c-0.245,0.238-0.534,0.428-0.865,0.57c-0.332,0.143-0.682,0.211-1.049,0.211
			c-0.369,0-0.719-0.07-1.051-0.211c-0.332-0.141-0.617-0.332-0.857-0.57c-0.239-0.24-0.43-0.525-0.57-0.857
			c-0.142-0.332-0.212-0.682-0.212-1.051v-17.001c0-1.069,0.056-2.041,0.166-2.919c0.11-0.878,0.334-1.624,0.672-2.238
			c0.337-0.615,0.81-1.089,1.418-1.428c0.607-0.337,1.409-0.507,2.403-0.507c0.712,0,1.336,0.123,1.87,0.369
			c0.534,0.245,1.031,0.642,1.491,1.188c0.462,0.546,0.909,1.256,1.346,2.127c0.435,0.872,0.911,1.928,1.427,3.168l4.918,11.881
			h0.148l4.973-11.881c0.442-1.055,0.875-2.008,1.299-2.856c0.424-0.847,0.875-1.563,1.354-2.155
			c0.479-0.588,1.002-1.043,1.566-1.363c0.564-0.319,1.209-0.479,1.934-0.479c0.786,0,1.471,0.117,2.055,0.351
			c0.583,0.232,1.062,0.607,1.437,1.124c0.375,0.516,0.654,1.182,0.839,1.998c0.184,0.817,0.276,1.803,0.276,2.957v17.665
			c0,0.369-0.072,0.719-0.213,1.051c-0.142,0.332-0.335,0.617-0.579,0.857c-0.247,0.238-0.535,0.428-0.867,0.57
			c-0.331,0.143-0.682,0.211-1.049,0.211c-0.369,0-0.719-0.07-1.051-0.211c-0.332-0.141-0.616-0.332-0.856-0.57
			c-0.239-0.24-0.43-0.525-0.571-0.857c-0.141-0.332-0.212-0.682-0.212-1.051v-17.646L0.734-125.588L0.734-125.588z"/>
	</g>
	<g>
		<path fill="#FFFFFF" d="M10.921-118.625c0-2.027,0.273-3.898,0.82-5.618c0.545-1.719,1.366-3.198,2.459-4.439
			c1.093-1.241,2.462-2.21,4.106-2.91c1.646-0.7,3.573-1.05,5.783-1.05c2.149,0,4.047,0.337,5.692,1.013
			c1.646,0.675,3.022,1.63,4.126,2.864c1.105,1.234,1.939,2.711,2.507,4.43c0.563,1.719,0.847,3.623,0.847,5.71
			c0,2.052-0.275,3.937-0.828,5.655c-0.554,1.72-1.383,3.195-2.486,4.43c-1.106,1.234-2.481,2.196-4.127,2.885
			s-3.555,1.03-5.729,1.03c-2.123,0-4.005-0.332-5.646-0.995c-1.639-0.662-3.019-1.604-4.135-2.828
			c-1.118-1.221-1.962-2.691-2.533-4.412C11.207-114.579,10.921-116.501,10.921-118.625z M18.087-118.625
			c0,3.046,0.483,5.347,1.455,6.899c0.97,1.553,2.487,2.33,4.549,2.33c2.027,0,3.538-0.774,4.532-2.321
			c0.994-1.547,1.492-3.851,1.492-6.908c0-1.474-0.119-2.785-0.359-3.933c-0.238-1.148-0.605-2.115-1.097-2.901
			c-0.49-0.786-1.113-1.384-1.869-1.795c-0.755-0.412-1.654-0.618-2.699-0.618c-1.03,0-1.924,0.207-2.68,0.618
			c-0.755,0.411-1.379,1.01-1.869,1.795c-0.491,0.786-0.856,1.753-1.097,2.901C18.206-121.41,18.087-120.099,18.087-118.625z"/>
	</g>
	<g>
		<path fill="#FFFFFF" d="M40.246-127.154c-0.355,0-0.693-0.064-1.014-0.193c-0.318-0.128-0.599-0.304-0.838-0.525
			c-0.239-0.22-0.43-0.478-0.57-0.773c-0.143-0.294-0.213-0.607-0.213-0.939s0.07-0.647,0.213-0.948
			c0.142-0.301,0.331-0.562,0.57-0.784c0.239-0.221,0.52-0.396,0.838-0.524c0.319-0.129,0.658-0.194,1.014-0.194h16.816
			c0.355,0,0.693,0.064,1.015,0.194c0.319,0.129,0.598,0.303,0.839,0.524c0.238,0.221,0.429,0.483,0.57,0.784
			c0.141,0.301,0.212,0.616,0.212,0.948s-0.07,0.645-0.212,0.939c-0.143,0.295-0.332,0.553-0.57,0.773
			c-0.241,0.221-0.52,0.397-0.839,0.525c-0.318,0.129-0.657,0.193-1.015,0.193h-4.937v18.292c0,0.504-0.09,0.975-0.269,1.41
			c-0.178,0.437-0.424,0.816-0.735,1.143c-0.313,0.324-0.677,0.58-1.087,0.764c-0.411,0.184-0.855,0.277-1.336,0.277
			c-0.479,0-0.924-0.094-1.335-0.277c-0.412-0.186-0.771-0.439-1.078-0.764c-0.308-0.325-0.55-0.706-0.728-1.143
			c-0.179-0.436-0.269-0.906-0.269-1.41v-18.292H40.246z"/>
	</g>
	<g>
		<path fill="#FFFFFF" d="M69.848-108.862c0,0.504-0.09,0.974-0.269,1.408c-0.179,0.438-0.424,0.817-0.735,1.144
			c-0.313,0.325-0.678,0.579-1.088,0.764c-0.412,0.185-0.855,0.277-1.336,0.277c-0.479,0-0.924-0.093-1.336-0.277
			c-0.41-0.185-0.771-0.438-1.078-0.764c-0.306-0.325-0.55-0.706-0.727-1.144c-0.18-0.435-0.269-0.904-0.269-1.408v-19.582
			c0-0.502,0.089-0.973,0.269-1.408c0.177-0.436,0.421-0.816,0.727-1.143c0.309-0.325,0.668-0.58,1.078-0.765
			c0.412-0.185,0.857-0.276,1.336-0.276s0.924,0.092,1.336,0.276c0.41,0.185,0.771,0.438,1.088,0.765
			c0.312,0.326,0.559,0.707,0.735,1.143c0.179,0.436,0.269,0.906,0.269,1.408V-108.862z"/>
	</g>
	<g>
		<path fill="#FFFFFF" d="M86.039-110.263l5.582-18.751c0.145-0.516,0.35-0.961,0.607-1.335c0.258-0.375,0.543-0.685,0.854-0.931
			c0.313-0.246,0.646-0.429,0.994-0.553c0.35-0.122,0.696-0.184,1.041-0.184c0.354,0,0.696,0.064,1.021,0.193
			c0.324,0.128,0.613,0.315,0.867,0.561c0.25,0.247,0.449,0.553,0.6,0.921c0.146,0.368,0.222,0.792,0.222,1.271
			c0,0.553-0.103,1.142-0.297,1.77l-4.787,14.793c-0.406,1.24-0.795,2.312-1.17,3.214c-0.375,0.903-0.81,1.655-1.3,2.256
			c-0.489,0.603-1.08,1.048-1.768,1.335c-0.688,0.289-1.543,0.435-2.562,0.435c-0.934,0-1.719-0.104-2.356-0.314
			C82.951-105.792,86.039-110.263,86.039-110.263z"/>
	</g>
	<g>
		<path fill="#FFFFFF" d="M85.947-110.263h0.092c0,0-1.812,4.889-2.451,4.679c-0.637-0.208-1.199-0.571-1.684-1.086
			c-0.486-0.516-0.924-1.204-1.318-2.063c-0.393-0.858-0.803-1.939-1.234-3.241l-5.139-15.565c-0.086-0.246-0.145-0.479-0.174-0.7
			c-0.031-0.221-0.047-0.436-0.047-0.646c0-0.478,0.082-0.908,0.248-1.289c0.166-0.381,0.391-0.709,0.674-0.986
			c0.281-0.276,0.602-0.488,0.957-0.635c0.355-0.148,0.73-0.221,1.125-0.221c0.33,0,0.664,0.058,1.002,0.175
			c0.338,0.116,0.658,0.298,0.959,0.543c0.301,0.247,0.574,0.562,0.818,0.949c0.246,0.387,0.447,0.85,0.606,1.39L85.947-110.263z"/>
	</g>
	<g>
		<path fill="#FFFFFF" d="M97.553-108.181c0-0.405,0.076-0.789,0.229-1.152c0.153-0.361,0.368-0.681,0.646-0.958
			c0.275-0.276,0.604-0.497,0.984-0.663c0.381-0.164,0.797-0.248,1.252-0.248c0.406,0,0.797,0.073,1.17,0.221
			c0.375,0.147,0.707,0.354,0.996,0.617c0.287,0.265,0.518,0.582,0.688,0.948c0.174,0.37,0.26,0.781,0.26,1.235
			c0,0.404-0.079,0.792-0.237,1.161c-0.16,0.368-0.377,0.69-0.654,0.967c-0.274,0.274-0.604,0.494-0.983,0.653
			c-0.381,0.16-0.793,0.24-1.234,0.24c-0.432,0-0.832-0.076-1.207-0.23c-0.373-0.153-0.703-0.365-0.984-0.637
			c-0.283-0.27-0.506-0.588-0.672-0.957C97.635-107.352,97.553-107.751,97.553-108.181z"/>
	</g>
</g>
<text transform="matrix(1 0 0 1 145.6719 -111.2021)" fill="#FFFFFF" font-family="'HiraMaruPro-W4-83pv-RKSJ-H'" font-size="34.4816">M</text>
<text transform="matrix(1 0 0 1 178.2217 -111.2021)" fill="#FFFFFF" font-family="'HiraMaruPro-W4-83pv-RKSJ-H'" font-size="34.4816" letter-spacing="-1">O</text>
<text transform="matrix(1 0 0 1 204.2207 -111.2021)" fill="#FFFFFF" font-family="'HiraMaruPro-W4-83pv-RKSJ-H'" font-size="34.4816">T</text>
<text transform="matrix(1 0 0 1 227.875 -111.2021)" fill="#FFFFFF" font-family="'HiraMaruPro-W4-83pv-RKSJ-H'" font-size="34.4816" letter-spacing="-1">I</text>
<text transform="matrix(1 0 0 1 235.4609 -111.2021)" fill="#FFFFFF" font-family="'HiraMaruPro-W4-83pv-RKSJ-H'" font-size="34.4816" letter-spacing="-4">V</text>
<text transform="matrix(1 0 0 1 256.0117 -111.2021)" fill="#FFFFFF" font-family="'HiraMaruPro-W4-83pv-RKSJ-H'" font-size="34.4816">.</text>
<text transform="matrix(1 0 0 1 17.666 156.3086)" fill="#FFFFFF" font-family="'Simplifica'" font-size="34.4816" letter-spacing="5">M</text>
<text transform="matrix(1 0 0 1 40.1133 156.3086)" fill="#FFFFFF" font-family="'Simplifica'" font-size="34.4816" letter-spacing="3">O</text>
<text transform="matrix(1 0 0 1 57.2852 156.3086)" fill="#FFFFFF" font-family="'Simplifica'" font-size="34.4816" letter-spacing="5">T</text>
<text transform="matrix(1 0 0 1 74.6289 156.3086)" fill="#FFFFFF" font-family="'Simplifica'" font-size="34.4816" letter-spacing="4">I</text>
<text transform="matrix(1 0 0 1 83.0078 156.3086)" fill="#FFFFFF" font-family="'Simplifica'" font-size="34.4816" letter-spacing="2">V</text>
<text transform="matrix(1 0 0 1 98.4219 156.3086)" fill="#FFFFFF" font-family="'Simplifica'" font-size="34.4816" letter-spacing="5">.</text>
<text transform="matrix(1 0 0 1 176.334 152.3096)" fill="#FFFFFF" font-family="'NexaLight'" font-size="34.4816">M</text>
<text transform="matrix(1 0 0 1 204.1934 152.3096)" fill="#FFFFFF" font-family="'NexaLight'" font-size="34.4816" letter-spacing="-1">O</text>
<text transform="matrix(1 0 0 1 230.1582 152.3096)" fill="#FFFFFF" font-family="'NexaLight'" font-size="34.4816">T</text>
<text transform="matrix(1 0 0 1 251.4678 152.3096)" fill="#FFFFFF" font-family="'NexaLight'" font-size="34.4816" letter-spacing="-1">I</text>
<text transform="matrix(1 0 0 1 256.916 152.3096)" fill="#FFFFFF" font-family="'NexaLight'" font-size="34.4816" letter-spacing="-3">V</text>
<text transform="matrix(1 0 0 1 275.6738 152.3096)" fill="#FFFFFF" font-family="'NexaLight'" font-size="34.4816">.</text>
<text transform="matrix(1 0 0 1 -133.1431 152.3096)" fill="#FFFFFF" font-family="'NexaBold'" font-size="34.4816">M</text>
<text transform="matrix(1 0 0 1 -103.627 152.3096)" fill="#FFFFFF" font-family="'NexaBold'" font-size="34.4816" letter-spacing="-1">O</text>
<text transform="matrix(1 0 0 1 -77.6279 152.3096)" fill="#FFFFFF" font-family="'NexaBold'" font-size="34.4816">TI</text>
<text transform="matrix(1 0 0 1 -46.9053 152.3096)" fill="#FFFFFF" font-family="'NexaBold'" font-size="34.4816" letter-spacing="-4">V</text>
<text transform="matrix(1 0 0 1 -25.458 152.3096)" fill="#FFFFFF" font-family="'NexaBold'" font-size="34.4816">.</text>
<g>
	<path fill="#FFFFFF" d="M196.793,35.079h-4.725l-10.034-24.243h5.104l7.275,18.795L196.793,35.079z"/>
</g>
<g>
	<path fill="#33BA9E" d="M-188.454,155.685l5.582-18.751c0.145-0.516,0.35-0.961,0.607-1.335c0.258-0.375,0.543-0.685,0.854-0.931
		c0.314-0.246,0.646-0.43,0.996-0.554c0.35-0.122,0.695-0.184,1.041-0.184c0.354,0,0.695,0.063,1.02,0.192s0.613,0.315,0.867,0.562
		c0.25,0.247,0.449,0.553,0.601,0.921c0.146,0.368,0.221,0.792,0.221,1.271c0,0.554-0.103,1.143-0.295,1.77l-4.789,14.792
		c-0.403,1.24-0.795,2.312-1.17,3.214c-0.375,0.903-0.81,1.655-1.299,2.256c-0.49,0.604-1.08,1.047-1.771,1.336
		c-0.688,0.288-1.541,0.436-2.561,0.436c-0.936,0-1.721-0.104-2.359-0.314C-191.542,160.154-188.454,155.685-188.454,155.685z"/>
	
		<linearGradient id="SVGID_1_" gradientUnits="userSpaceOnUse" x1="-1881.502" y1="-476.2256" x2="-1889.5297" y2="-453.3163" gradientTransform="matrix(1 0 0 -1 1692 -316.125)">
		<stop  offset="0" style="stop-color:#BEDC91"/>
		<stop  offset="1" style="stop-color:#5CC09A"/>
	</linearGradient>
	<path fill="url(#SVGID_1_)" d="M-188.546,155.685h0.092c0,0-1.812,4.889-2.451,4.679c-0.637-0.208-1.199-0.571-1.684-1.086
		c-0.486-0.516-0.926-1.204-1.318-2.063c-0.393-0.856-0.803-1.938-1.234-3.239l-5.139-15.565c-0.086-0.246-0.145-0.479-0.174-0.699
		c-0.031-0.222-0.047-0.437-0.047-0.646c0-0.479,0.082-0.908,0.248-1.289s0.391-0.709,0.674-0.985
		c0.281-0.276,0.602-0.488,0.957-0.636s0.73-0.221,1.125-0.221c0.33,0,0.664,0.058,1.002,0.175c0.338,0.116,0.658,0.298,0.959,0.543
		c0.301,0.247,0.574,0.562,0.818,0.949c0.246,0.387,0.447,0.85,0.607,1.39L-188.546,155.685z"/>
	<path fill="#33BA9E" d="M-176.94,157.767c0-0.405,0.076-0.789,0.23-1.152c0.152-0.361,0.369-0.681,0.645-0.958
		c0.275-0.276,0.605-0.497,0.984-0.663c0.381-0.164,0.797-0.248,1.252-0.248c0.406,0,0.797,0.073,1.17,0.221
		c0.375,0.148,0.707,0.354,0.996,0.617c0.287,0.267,0.518,0.582,0.688,0.948c0.175,0.37,0.261,0.781,0.261,1.235
		c0,0.404-0.08,0.792-0.238,1.161c-0.159,0.368-0.377,0.69-0.653,0.967c-0.275,0.274-0.604,0.494-0.984,0.653
		c-0.381,0.16-0.791,0.24-1.234,0.24c-0.43,0-0.832-0.076-1.205-0.23c-0.375-0.153-0.703-0.365-0.984-0.637
		c-0.282-0.271-0.506-0.588-0.672-0.957C-176.858,158.596-176.94,158.196-176.94,157.767z"/>
</g>
</svg>
